Coordinates
version=1
nRows=17
nColumns=24
inDegrees=yes

Units are S.I. units (second, meters, Newtons, ...)
Angles are in degrees.

endheader
time	pelvis_tilt	pelvis_list	pelvis_rotation	pelvis_tx	pelvis_ty	pelvis_tz	hip_flexion_r	hip_adduction_r	hip_rotation_r	knee_angle_r	ankle_angle_r	subtalar_angle_r	mtp_angle_r	hip_flexion_l	hip_adduction_l	hip_rotation_l	knee_angle_l	ankle_angle_l	subtalar_angle_l	mtp_angle_l	lumbar_extension	lumbar_bending	lumbar_rotation
      0.47900000	      1.94961891	      9.48657501	     -4.32635606	     -0.89250243	      0.98114647	      0.28488080	     23.42799062	     -9.07161238	     -0.82716211	     -0.23353261	      2.99788421	     -1.52660746	      0.54399808	    -21.29221210	     14.09437727	     10.68338312	      1.14426428	      8.60646386	    -16.50897309	     -0.66062985	    -13.75163781	     -2.56082785	     -8.31354389
      0.48316667	      1.90315568	      9.41160160	     -4.27826643	     -0.88696639	      0.98026758	      0.28526746	     23.43036772	     -8.95528173	     -0.52421308	     -0.27968968	      2.67617630	     -1.67358873	      3.63978699	    -21.38045489	     14.00270891	     10.60888135	      0.66512454	      9.09893263	    -16.07297214	     -5.40919619	    -13.70675052	     -2.42670307	     -8.42277051
      0.48733333	      1.82821684	      9.31110512	     -4.23094793	     -0.88142394	      0.97939891	      0.28567573	     23.46852023	     -8.80776613	     -0.16928584	     -0.42660962	      2.37658395	     -1.86466472	      3.65951065	    -21.42992874	     13.88566587	     10.58112094	      0.17952425	      9.40276637	    -15.88772314	     -5.38643310	    -13.65159199	     -2.28914344	     -8.32824913
      0.49150000	      1.74418189	      9.20764669	     -4.20731417	     -0.87583720	      0.97855503	      0.28611415	     23.54806912	     -8.64770907	      0.21989108	     -0.70311066	      2.01818387	     -2.14795134	      3.69621866	    -21.42514189	     13.77656311	     10.37534209	     -0.38707766	      9.78305244	    -15.43948971	     -5.33693113	    -13.56005968	     -2.12978775	     -8.34495027
      0.49566667	      1.66337355	      9.07928534	     -4.17610053	     -0.87022538	      0.97777676	      0.28656036	     23.62419874	     -8.46572817	      0.58526328	     -1.05827714	      1.65131081	     -2.40237031	      3.73937574	    -21.41021675	     13.64092884	     10.20805418	     -0.98615989	     10.14777763	    -15.05939751	     -5.27258996	    -13.48141540	     -1.94644832	     -8.31441998
      0.49983333	      1.57862460	      8.93173670	     -4.14715774	     -0.86457915	      0.97703891	      0.28702623	     23.70887104	     -8.26194802	      0.95567717	     -1.48599475	      1.24308892	     -2.70903598	      3.78333286	    -21.37930177	     13.48662671	     10.04161752	     -1.61341852	     10.48972612	    -14.69694524	     -5.19894680	    -13.39134343	     -1.73885871	     -8.29082656
      0.50400000	      1.48952565	      8.76583678	     -4.12817583	     -0.85888006	      0.97633848	      0.28752175	     23.80754765	     -8.03400187	      1.32646206	     -1.98932210	      0.79890040	     -3.05670766	      3.83318112	    -21.32199697	     13.31846881	      9.81347009	     -2.28957087	     10.83121792	    -14.28833736	     -5.10337406	    -13.30021619	     -1.51484673	     -8.24581161
      0.50816667	      1.39884733	      8.58962563	     -4.10940310	     -0.85317125	      0.97568503	      0.28802982	     23.92149615	     -7.79361449	      1.67893592	     -2.56895963	      0.33698728	     -3.42314608	      3.88211676	    -21.24610690	     13.14126021	      9.59996410	     -2.99622345	     11.14300958	    -13.90997672	     -4.99470887	    -13.20540908	     -1.27733693	     -8.19880845
      0.51233333	      1.31087742	      8.39127395	     -4.10130109	     -0.84741410	      0.97507410	      0.28856931	     24.03869781	     -7.52539499	      2.02105711	     -3.20409377	     -0.14567221	     -3.81601070	      3.92739651	    -21.15880921	     12.94529624	      9.35329953	     -3.72880890	     11.44046277	    -13.52922876	     -4.86923581	    -13.10693171	     -1.01421735	     -8.12770260
      0.51650000	      1.24014262	      8.18685215	     -4.09467631	     -0.84165652	      0.97453477	      0.28914190	     24.14630862	     -7.24968507	      2.34794610	     -3.89270429	     -0.61358351	     -4.22932465	      3.99193045	    -21.05067605	     12.74377872	      9.03831569	     -4.54264994	     11.74030304	    -13.07256506	     -4.66556369	    -13.05202008	     -0.75307323	     -8.06624286
      0.52066667	      1.14372659	      7.96532686	     -4.08997970	     -0.83585328	      0.97398720	      0.28972009	     24.29808816	     -6.95185302	      2.64081564	     -4.64940580	     -1.08810728	     -4.65841519	      4.04500783	    -20.92078985	     12.52645302	      8.76138970	     -5.35175478	     11.98490342	    -12.70534581	     -4.44207271	    -12.94990665	     -0.46598600	     -7.98860310
      0.52483333	      1.05609897	      7.72163577	     -4.10676106	     -0.82998319	      0.97349241	      0.29035352	     24.44755125	     -6.62205811	      2.91372103	     -5.45098563	     -1.54481636	     -5.07780813	      4.09632672	    -20.79537760	     12.29192356	      8.46363945	     -6.16376325	     12.20422864	    -12.31905340	     -4.14072935	    -12.83665352	     -0.14670694	     -7.89361336
      0.52900000	      0.92371040	      7.50869027	     -4.11041605	     -0.82413157	      0.97297414	      0.29097160	     24.67757571	     -6.32310472	      3.14892363	     -6.33024869	     -1.97241309	     -5.48628920	      4.10804754	    -20.62004382	     12.09021660	      8.28391200	     -6.97433528	     12.26455042	    -12.17849970	     -3.98036811	    -12.66823410	      0.13365063	     -7.79193226
      0.53316667	      0.81588497	      7.26283959	     -4.13004069	     -0.81823906	      0.97252627	      0.29164847	     24.87165542	     -5.98393630	      3.38620286	     -7.21627595	     -2.37060682	     -5.94242255	      4.11265667	    -20.43186694	     11.85628771	      7.97321897	     -7.86531817	     12.37965985	    -11.87170201	     -3.76506585	    -12.53771642	      0.44717867	     -7.68135395
      0.53733333	      0.74951828	      6.98730592	     -4.13963678	     -0.81233815	      0.97218014	      0.29235575	     25.00860020	     -5.62184311	      3.57681247	     -8.10611793	     -2.70259436	     -6.38304441	      4.10621015	    -20.25740999	     11.58398787	      7.59875658	     -8.82077352	     12.50715700	    -11.48366749	     -3.36525263	    -12.48876251	      0.77530446	     -7.57449712
      0.54150000	      0.63133234	      6.74265041	     -4.17898518	     -0.80638010	      0.97178116	      0.29307411	     25.24669972	     -5.27559545	      3.75507829	     -9.09203756	     -2.97197085	     -6.75946934	      4.08868723	    -20.06645874	     11.36384502	      7.39222577	     -9.68418043	     12.42437174	    -11.41368024	     -3.13206020	    -12.32205975	      1.09493176	     -7.46140926
      0.54566667	      0.57806632	      6.43824638	     -4.20221854	     -0.80043054	      0.97152358	      0.29384106	     25.37321507	     -4.87778104	      3.90844801	    -10.02666713	     -3.17886153	     -7.19260360	      4.01768513	    -19.87573617	     11.06459470	      7.00068172	    -10.69927738	     12.50197126	    -11.02131911	     -2.45485617	    -12.26929224	      1.47364586	     -7.34428869
